# xmcd
#
# Track frame offsets:
#	150
#	18159
#	32784
#	52607
#	67397
#	86738
#	91631
#	110752
#	126509
#	148424
#	162892
#	181527
#	202224
#
# Disc length: 3007 seconds
#
# Revision: 1
# Processed by: cddbd v1.5.2PL0 Copyright (c) Steve Scherf et al.
# Submitted via: audiograbber 1.83.01
#
DISCID=b60bbd0d
DTITLE=Tom Hambridge and the Rattlesnakes - Tom Hambridge and the Rattlesnakes 
DTITLE=Live
DYEAR=2007
DGENRE=Blues
TTITLE0=Rattlesnake Man
TTITLE1=Some Things Never Change
TTITLE2=Get Off
TTITLE3=Sweet Mama
TTITLE4=Shot Glass
TTITLE5=Hammer Slammer
TTITLE6=Rachel Fay
TTITLE7=Nineteen
TTITLE8=Cadillac
TTITLE9=Lone Wolf
TTITLE10=Cut Way Back
TTITLE11=Rock Me Right
TTITLE12=Trouble in the Henhouse
EXTD=
EXTT0=
EXTT1=
EXTT2=
EXTT3=
EXTT4=
EXTT5=
EXTT6=
EXTT7=
EXTT8=
EXTT9=
EXTT10=
EXTT11=
EXTT12=
PLAYORDER=
